<mxfile host="app.diagrams.net" modified="2022-09-10T11:04:52.809Z" agent="5.0 (Windows NT 10.0; Win64; x64) AppleWebKit/537.36 (KHTML, like Gecko) Chrome/104.0.0.0 Safari/537.36" etag="q-4hRErxs9CxaJGLKkW5" version="20.2.7" type="github">
  <diagram id="XFmXOWCdiFbE8fhrmYsI" name="Page-1">
    <mxGraphModel dx="613" dy="634" grid="1" gridSize="10" guides="1" tooltips="1" connect="1" arrows="1" fold="1" page="1" pageScale="1" pageWidth="1100" pageHeight="850" math="0" shadow="0">
      <root>
        <mxCell id="0" />
        <mxCell id="1" parent="0" />
        <mxCell id="17OE9fj6btFtuNgfWMhv-1" value="&lt;h1&gt;Binary Search tree&lt;/h1&gt;&lt;p&gt;&lt;/p&gt;&lt;ul&gt;&lt;li&gt;Variant of a Binary Tree with a strict condition based on node value&lt;/li&gt;&lt;li&gt;For all nodes in a BST, the values of all nodes in the left sub-tree of the current node are less than or equal to the value of the node itself&lt;/li&gt;&lt;li&gt;All node values in the right subtree are greater than the value of the current node&lt;/li&gt;&lt;/ul&gt;&lt;div&gt;&lt;b&gt;&lt;i&gt;Left Subtree Value &amp;lt;= Current Subtree Value &amp;lt; Right Subtree Value&lt;/i&gt;&lt;/b&gt;&lt;/div&gt;&lt;div&gt;&lt;b&gt;&lt;i&gt;&lt;br&gt;&lt;/i&gt;&lt;/b&gt;&lt;/div&gt;&lt;div&gt;&lt;ul&gt;&lt;li&gt;Not every Binary Tree is a Binary Search Tree&lt;/li&gt;&lt;li&gt;A BST is a &lt;i&gt;type &lt;/i&gt;of Binary Tree&lt;/li&gt;&lt;/ul&gt;&lt;/div&gt;&lt;p&gt;&lt;/p&gt;" style="text;html=1;strokeColor=none;fillColor=none;spacing=5;spacingTop=-20;whiteSpace=wrap;overflow=hidden;rounded=0;" vertex="1" parent="1">
          <mxGeometry x="50" y="50" width="620" height="280" as="geometry" />
        </mxCell>
        <mxCell id="17OE9fj6btFtuNgfWMhv-2" value="1" style="ellipse;whiteSpace=wrap;html=1;aspect=fixed;" vertex="1" parent="1">
          <mxGeometry x="250" y="385" width="65" height="65" as="geometry" />
        </mxCell>
        <mxCell id="17OE9fj6btFtuNgfWMhv-3" value="2" style="ellipse;whiteSpace=wrap;html=1;aspect=fixed;" vertex="1" parent="1">
          <mxGeometry x="200" y="490" width="65" height="65" as="geometry" />
        </mxCell>
        <mxCell id="17OE9fj6btFtuNgfWMhv-4" value="3" style="ellipse;whiteSpace=wrap;html=1;aspect=fixed;" vertex="1" parent="1">
          <mxGeometry x="300" y="490" width="65" height="65" as="geometry" />
        </mxCell>
        <mxCell id="17OE9fj6btFtuNgfWMhv-5" value="" style="endArrow=classic;html=1;rounded=0;exitX=0.5;exitY=1;exitDx=0;exitDy=0;entryX=0.669;entryY=-0.024;entryDx=0;entryDy=0;entryPerimeter=0;" edge="1" parent="1" source="17OE9fj6btFtuNgfWMhv-2" target="17OE9fj6btFtuNgfWMhv-3">
          <mxGeometry width="50" height="50" relative="1" as="geometry">
            <mxPoint x="330" y="440" as="sourcePoint" />
            <mxPoint x="380" y="390" as="targetPoint" />
          </mxGeometry>
        </mxCell>
        <mxCell id="17OE9fj6btFtuNgfWMhv-6" value="" style="endArrow=classic;html=1;rounded=0;exitX=0.5;exitY=1;exitDx=0;exitDy=0;entryX=0.305;entryY=0.06;entryDx=0;entryDy=0;entryPerimeter=0;" edge="1" parent="1" source="17OE9fj6btFtuNgfWMhv-2" target="17OE9fj6btFtuNgfWMhv-4">
          <mxGeometry width="50" height="50" relative="1" as="geometry">
            <mxPoint x="292.5" y="460" as="sourcePoint" />
            <mxPoint x="238.485" y="498.44000000000005" as="targetPoint" />
          </mxGeometry>
        </mxCell>
        <mxCell id="17OE9fj6btFtuNgfWMhv-7" value="Binary Tree but not a valid BST" style="text;html=1;strokeColor=none;fillColor=none;align=center;verticalAlign=middle;whiteSpace=wrap;rounded=0;" vertex="1" parent="1">
          <mxGeometry x="150" y="402.5" width="60" height="30" as="geometry" />
        </mxCell>
        <mxCell id="17OE9fj6btFtuNgfWMhv-14" value="2" style="ellipse;whiteSpace=wrap;html=1;aspect=fixed;" vertex="1" parent="1">
          <mxGeometry x="555" y="380" width="65" height="65" as="geometry" />
        </mxCell>
        <mxCell id="17OE9fj6btFtuNgfWMhv-15" value="2" style="ellipse;whiteSpace=wrap;html=1;aspect=fixed;" vertex="1" parent="1">
          <mxGeometry x="505" y="485" width="65" height="65" as="geometry" />
        </mxCell>
        <mxCell id="17OE9fj6btFtuNgfWMhv-16" value="3" style="ellipse;whiteSpace=wrap;html=1;aspect=fixed;" vertex="1" parent="1">
          <mxGeometry x="605" y="485" width="65" height="65" as="geometry" />
        </mxCell>
        <mxCell id="17OE9fj6btFtuNgfWMhv-17" value="" style="endArrow=classic;html=1;rounded=0;exitX=0.5;exitY=1;exitDx=0;exitDy=0;entryX=0.669;entryY=-0.024;entryDx=0;entryDy=0;entryPerimeter=0;" edge="1" parent="1" source="17OE9fj6btFtuNgfWMhv-14" target="17OE9fj6btFtuNgfWMhv-15">
          <mxGeometry width="50" height="50" relative="1" as="geometry">
            <mxPoint x="635" y="435" as="sourcePoint" />
            <mxPoint x="685" y="385" as="targetPoint" />
          </mxGeometry>
        </mxCell>
        <mxCell id="17OE9fj6btFtuNgfWMhv-18" value="" style="endArrow=classic;html=1;rounded=0;exitX=0.5;exitY=1;exitDx=0;exitDy=0;entryX=0.305;entryY=0.06;entryDx=0;entryDy=0;entryPerimeter=0;" edge="1" parent="1" source="17OE9fj6btFtuNgfWMhv-14" target="17OE9fj6btFtuNgfWMhv-16">
          <mxGeometry width="50" height="50" relative="1" as="geometry">
            <mxPoint x="597.5" y="455" as="sourcePoint" />
            <mxPoint x="543.485" y="493.44000000000005" as="targetPoint" />
          </mxGeometry>
        </mxCell>
        <mxCell id="17OE9fj6btFtuNgfWMhv-19" value="Valid BST" style="text;html=1;strokeColor=none;fillColor=none;align=center;verticalAlign=middle;whiteSpace=wrap;rounded=0;" vertex="1" parent="1">
          <mxGeometry x="455" y="397.5" width="60" height="30" as="geometry" />
        </mxCell>
      </root>
    </mxGraphModel>
  </diagram>
</mxfile>
